PathFileType	4	(X/Y/Z)	\\Move.snu.ac.kr\motion\Animal\091204_091205_Bird\091205_bird\Project 2\Capture day 2\Session 1\pigeon_025.trc
DataRate	CameraRate	NumFrames	NumMarkers	Units	OrigDataRate	OrigDataStartFrame	OrigNumFrames
240.0	240.0	20	14	mm	240.0	242	2738
Frame#	Time	14MarkersBird:Head			14MarkersBird:C_back			14MarkersBird:Spine			14MarkersBird:L-shoulder			14MarkersBird:L-elbow			14MarkersBird:L-wrist			14MarkersBird:L-hand			14MarkersBird:R-shoulder			14MarkersBird:R-elbow			14MarkersBird:R-Wrist			14MarkersBird:R-hand			14MarkersBird:C_Tail			14MarkersBird:L-Tale			14MarkersBird:R-Tale			
		X1	Y1	Z1	X2	Y2	Z2	X3	Y3	Z3	X4	Y4	Z4	X5	Y5	Z5	X6	Y6	Z6	X7	Y7	Z7	X8	Y8	Z8	X9	Y9	Z9	X10	Y10	Z10	X11	Y11	Z11	X12	Y12	Z12	X13	Y13	Z13	X14	Y14	Z14	

2174	9.054	474.67288	1547.58777	410.20712	448.20047	1560.60095	465.39011	422.76694	1555.74414	514.18512	440.67773	1553.75500	431.21594	408.26935	1561.09033	449.97705	418.43210	1559.58154	407.30087	419.04727	1534.77185	393.90393	480.91122	1546.24475	449.18246	489.99670	1549.62451	482.27603	509.85901	1543.10303	446.63507	520.10004	1505.19348	434.79971	362.14346	1486.99280	601.41614	319.37128	1522.95959	515.86334	476.52658	1493.25549	596.65588	
2175	9.058	478.48209	1541.92395	398.31921	452.31342	1554.37781	453.34119	426.66364	1550.23914	502.13644	444.54587	1547.90491	419.76990	414.45987	1559.85828	441.74094	420.23581	1562.46619	398.37408	414.65955	1537.33057	386.03058	484.13367	1540.95691	437.36285	490.26749	1549.89038	472.26575	515.38074	1546.45923	438.75165	527.83661	1508.05920	432.45377	365.31482	1480.98022	588.66791	322.88275	1519.89429	504.03030	479.25317	1487.92249	585.27637	
2176	9.063	482.26254	1536.21643	386.44980	456.53293	1548.18054	441.29565	430.53665	1544.52209	490.12082	448.61148	1542.05591	408.23535	421.91403	1557.90686	433.49603	423.41055	1564.65247	390.20602	410.38568	1540.73022	380.48746	487.22534	1535.93518	425.48172	489.33655	1549.95752	460.85410	519.64246	1549.50354	430.57422	534.93359	1511.98022	432.25909	368.27039	1475.22034	576.03772	326.38791	1517.55090	491.33328	482.51172	1483.65649	574.24908	
2177	9.067	486.01535	1530.52979	374.64716	460.79611	1542.11316	429.23605	434.30304	1538.73206	478.22000	452.83224	1536.28003	396.65643	430.27600	1554.89270	425.09402	428.27377	1565.74609	382.55380	407.87558	1545.36499	377.17746	490.15094	1531.15161	413.53229	487.68066	1549.32837	448.06863	522.23132	1551.73914	422.05310	540.38586	1517.69165	433.40878	371.00610	1469.78918	563.64722	329.98877	1515.39661	477.86395	486.49109	1480.18250	563.34027	
2178	9.071	489.76340	1524.90527	362.92554	465.01233	1536.18201	417.13477	437.96570	1532.85986	466.45889	457.04587	1530.51782	385.10016	438.97696	1550.69458	416.26431	434.45160	1565.60120	375.03271	408.34323	1551.25598	375.11353	492.91705	1526.28149	401.67233	486.02246	1547.62964	434.05737	523.33942	1552.87781	413.14020	543.31274	1525.60864	434.42130	373.52719	1464.74207	551.57562	333.75339	1513.19592	463.99475	491.20782	1477.16467	552.29541	
2179	9.075	493.53726	1519.32397	351.27075	469.06534	1530.29089	405.05701	441.60880	1526.71045	454.78717	461.10645	1524.68018	373.60437	447.39392	1545.50378	406.72617	441.06924	1564.45520	367.25433	412.15567	1557.92700	372.94293	495.65701	1520.95789	390.09344	485.24576	1544.40002	418.92789	523.73773	1553.05774	403.67197	543.34851	1535.51697	433.54703	375.84985	1460.15515	539.87164	337.70932	1511.02490	450.21414	496.51465	1474.38220	540.96942	
2180	9.079	497.35968	1513.72363	339.65814	472.85919	1524.26807	393.16614	445.25208	1520.16223	443.16922	464.98935	1518.69543	362.16745	455.06479	1539.73865	396.24280	447.15775	1562.75977	358.89630	418.87491	1564.62097	369.62369	498.63660	1515.11182	378.72269	486.24899	1539.44360	402.53763	524.35651	1552.56250	393.71799	540.92383	1546.52649	429.48160	378.01923	1456.07947	528.57422	341.87103	1508.96069	436.87906	502.15915	1471.82227	529.39838	
2181	9.083	501.22302	1508.04211	328.08603	476.44730	1518.03125	381.52927	448.84467	1513.24329	431.58691	468.72052	1512.52795	350.76657	461.78320	1533.83423	384.62985	451.95950	1560.81104	349.72662	427.51657	1570.52844	364.52136	502.08878	1508.84534	367.40567	489.27136	1533.38965	385.53348	525.98828	1551.45020	383.63693	537.39948	1557.23938	421.74860	380.16885	1452.54980	517.76178	346.20731	1506.78381	424.04764	507.86517	1469.53235	517.73755	
2182	9.087	505.10229	1502.26062	316.58203	479.91708	1511.59729	370.13171	452.35941	1506.60474	420.24911	472.27872	1506.17554	339.37384	467.51141	1528.10486	371.83118	454.99548	1558.45422	339.71585	436.60391	1574.74414	357.13577	506.07315	1502.23706	356.15323	493.62445	1527.26477	369.92773	529.21283	1549.40784	373.86438	534.94598	1565.94202	410.82751	382.53909	1449.53162	507.50464	350.61667	1503.97278	411.57837	513.39178	1467.31055	506.09479	
2183	9.092	508.99142	1496.40491	305.18335	483.32108	1505.06616	358.93567	455.80963	1499.05005	408.74902	475.65237	1499.72070	327.96509	472.06680	1522.65576	358.15042	456.11115	1555.16394	329.01376	444.18689	1576.46484	347.01941	510.48434	1495.39307	345.03970	498.57846	1521.54980	357.36697	534.23895	1545.76794	364.83319	535.98737	1570.92859	398.13116	385.41559	1446.93689	497.81232	354.95801	1499.96997	399.33691	518.57111	1464.70044	494.47443	
2184	9.096	512.87726	1490.50977	293.90878	486.60101	1498.50049	347.98257	459.24231	1491.55310	397.17020	478.87909	1493.30469	316.56247	475.10431	1517.29871	344.24426	455.46298	1550.33020	317.68988	448.33975	1575.22632	334.03171	515.08179	1488.48059	334.12521	504.05261	1516.03015	347.58646	540.90417	1539.91736	356.63013	542.12665	1570.83838	385.51767	388.98431	1444.63428	488.55936	359.12738	1494.52307	387.23346	523.31177	1461.21997	482.84164	
2185	9.100	516.72394	1484.56348	282.73471	489.78986	1491.97815	337.19638	462.54004	1484.24731	385.80283	482.05875	1487.02417	305.21921	476.65912	1511.73218	330.61319	453.38544	1543.50598	305.58667	448.00247	1570.82141	318.50571	519.61267	1481.69788	323.32141	510.27429	1510.06458	339.31540	548.81500	1531.50818	349.06857	553.30011	1564.97363	374.39261	393.21158	1442.34973	479.44101	363.11136	1487.85120	375.19562	527.63995	1456.44580	471.18420	
2186	9.104	520.53113	1478.55811	271.61954	492.93594	1485.49255	326.48108	465.80750	1477.20129	374.57040	485.29553	1480.86230	293.94476	477.13321	1505.72156	317.23560	450.41245	1534.55774	292.38892	443.63449	1563.05786	301.02496	523.95013	1475.08179	312.45563	517.23730	1503.11145	331.39914	557.60114	1520.52148	341.56702	567.95862	1553.38147	364.83844	397.83420	1439.62903	470.07175	366.94604	1480.34863	363.23318	531.72900	1450.08228	459.51382	
2187	9.108	524.34479	1472.52905	260.51181	496.04840	1479.07202	315.68240	469.14935	1470.48376	363.39655	488.65945	1474.73816	282.66101	476.85480	1499.06152	303.77005	447.31647	1523.54834	277.83713	437.08987	1551.77380	282.00562	528.15527	1468.50403	301.39200	524.62994	1494.90894	323.17975	566.88611	1507.21777	333.18399	584.06866	1536.69189	355.58347	402.48343	1435.93225	460.13214	370.58948	1472.24463	351.49173	535.78851	1442.12683	447.85013	
2188	9.113	528.20758	1466.56372	249.34711	499.14929	1472.81824	304.60059	472.67032	1464.16321	352.20474	492.16376	1468.58484	271.24057	476.10849	1491.57214	289.85641	444.94598	1510.53821	261.88675	430.63873	1537.01648	261.65649	532.36731	1461.87683	290.05124	532.22809	1485.59119	314.19592	576.14001	1491.98999	322.99423	599.86890	1515.87976	344.87299	406.88458	1430.75354	449.42322	373.98267	1463.55090	340.19794	539.89746	1433.06519	436.20209	
2189	9.117	532.11206	1460.75159	238.06294	502.34067	1466.84827	293.17767	476.47510	1458.30835	340.91858	495.79276	1462.38806	259.60828	475.35638	1483.17651	275.33377	444.13635	1495.62341	244.74771	426.10437	1519.06799	240.24344	536.65912	1455.29077	278.41333	540.00409	1475.52234	304.20709	584.69965	1475.27856	310.46667	613.99506	1492.07690	331.37875	411.02991	1423.88220	437.94595	377.20044	1454.34180	329.51749	543.95392	1423.75928	424.61475	
2190	9.121	536.02588	1455.10095	226.61340	505.68869	1461.15808	281.54474	480.66837	1452.98779	329.46158	499.54147	1456.17090	247.79617	475.17239	1473.94409	260.30841	445.61911	1479.12109	226.93575	424.72104	1498.37927	218.28952	540.99158	1448.92395	266.56189	547.91467	1464.97131	293.15836	591.83502	1457.63110	295.55994	625.35907	1466.50891	314.56046	415.19550	1415.57690	425.88171	380.47226	1444.88770	319.37619	547.74829	1415.08203	413.20013	
2191	9.125	539.92517	1449.53650	214.99016	509.29065	1455.72205	269.76514	485.23596	1448.21558	317.85349	503.42886	1450.00757	235.88318	476.01611	1464.07117	245.07954	449.82513	1461.64600	209.26111	427.27618	1475.61975	196.59821	545.30969	1442.88000	254.63426	555.63031	1454.02393	280.97690	596.94397	1439.81909	278.62579	633.12335	1440.49365	294.57462	419.76797	1406.55835	413.53406	384.02200	1435.57764	309.50461	551.09082	1407.60364	402.10480	
2192	9.129	543.81500	1443.96741	203.21638	513.19006	1450.49475	257.95404	489.83765	1444.65063	306.44629	507.48630	1444.02368	223.91051	478.04391	1453.87329	230.03918	456.79303	1444.09631	192.56459	434.14600	1451.81018	176.19768	549.59827	1437.14075	242.67233	562.57117	1442.93384	267.75903	599.75916	1422.80261	260.26648	636.78162	1415.40393	272.08401	424.99670	1397.68262	401.20944	387.93912	1426.87634	299.64862	553.95032	1401.46582	391.37112	
2193	9.133	547.71436	1438.33545	191.31308	517.40698	1445.49683	246.12717	494.44379	1440.63599	294.78467	511.72916	1438.30505	211.86189	481.18372	1443.77734	215.56192	466.20135	1427.52661	177.39990	445.19772	1428.31824	158.12433	553.84100	1431.64258	230.62471	568.36804	1432.25647	253.93387	600.42426	1407.52600	241.25255	636.33691	1392.57410	248.12283	430.86523	1389.52759	389.09631	392.19937	1419.16760	289.68033	556.53137	1396.33545	380.82623	
